$MeshFormat
4.1 0 8
$EndMeshFormat
$PhysicalNames
1
2 1 "primary_surface"
$EndPhysicalNames
$Entities
255 18 1 0
1 0 332.5 53.5 0 
2 16 318.69 53.5 0 
3 17.22 291.98 54.39 0 
4 26.73 279.98 57.25 0 
5 36.66 256.57 47.7 0 
6 40.05 194.81 40.6 0 
7 45.48 143.83 39.75 0 
8 52.95 98.59 34.43 0 
9 69.23 57.1 20.9 0 
10 71.66 35.28 5.99 0 
11 69.28 17.94 -6.99 0 
12 68.5 -10 -7 0 
13 0 309 53.5 0 
14 16.6 299.333333 53.476667 0 
15 19.45 277.093333 53.726667 0 
16 26.853333 257.59 55.553333 0 
17 35.766667 223.196667 49.71 0 
18 40.43 170 44.81 0 
19 48.3 123.97 42.133333 0 
20 56.636667 85.126667 36.086667 0 
21 68.983333 51.453333 23.616667 0 
22 70.78 32.863333 9.973333 0 
23 68.096667 17.096667 -1.906667 0 
24 67.166667 -10 -2.333333 0 
25 0 285.5 53.5 0 
26 17.2 279.976667 53.453333 0 
27 21.68 262.206667 53.063333 0 
28 26.976667 235.2 53.856667 0 
29 34.873333 189.823333 51.72 0 
30 40.81 145.19 49.02 0 
31 51.12 104.11 44.516667 0 
32 60.323333 71.66333299999999 37.743333 0 
33 68.736667 45.806667 26.333333 0 
34 69.90000000000001 30.446667 13.956667 0 
35 66.91333299999999 16.253333 3.176667 0 
36 65.833333 -10 2.333333 0 
37 0 262 53.5 0 
38 17.8 260.62 53.43 0 
39 23.91 247.32 52.4 0 
40 27.1 212.81 52.16 0 
41 33.98 156.45 53.73 0 
42 41.19 120.38 53.23 0 
43 53.94 84.25 46.9 0 
44 64.01000000000001 58.2 39.4 0 
45 68.48999999999999 40.16 29.05 0 
46 69.02 28.03 17.94 0 
47 65.73 15.41 8.26 0 
48 64.5 -10 7 0 
49 0 332.5 53.5 0 
50 0 262 53.5 0 
51 68.5 -10 -7 0 
52 64.5 -10 7 0 
53 0 0 0 0 
54 1 0 0 0 
55 1 1 0 0 
56 0 1 0 0 
57 0.9818059222316817 0.4519572019387129 0 0 
58 0.9817952875907648 0.4634910009145191 0 0 
59 0.9818134312002275 0.4750275931625777 0 0 
60 0.9818602721955325 0.4864567403515766 0 0 
61 0.9819354162125207 0.4976687331615522 0 0 
62 0.9820381565545329 0.5085554389508544 0 0 
63 0.9821674800660647 0.5190113545384946 0 0 
64 0.9823220777208381 0.5289346530151368 0 0 
65 0.9825003597997235 0.5382282127901176 0 0 
66 0.9827004754023121 0.5468006166105114 0 0 
67 0.982920335911979 0.5545671080789277 0 0 
68 0.9831576419244697 0.56145049326367 0 0 
69 0.9834099130599908 0.567381975335446 0 0 
70 0.9836745200127565 0.5723019107660284 0 0 
71 0.9839487181525435 0.5761604764612476 0 0 
72 0.9842296819808416 0.5789182382422103 0 0 
73 0.9845145397586964 0.5805466123013172 0 0 
74 0.9848004076617837 0.5810282126097641 0 0 
75 0.9850844228768392 0.5803570787106422 0 0 
76 0.9853637751276728 0.5785387798706441 0 0 
77 0.9856357362035792 0.5755903931627149 0 0 
78 0.985897687152984 0.5715403546945316 0 0 
79 0.9861471428959684 0.5664281848683855 0 0 
80 0.9863817740968236 0.5603040902418797 0 0 
81 0.9865994262187291 0.5532284462387143 0 0 
82 0.9867981357545994 0.5452711666138974 0 0 
83 0.9869761436895217 0.5365109671823657 0 0 
84 0.9871319063001969 0.5270345328437832 0 0 
85 0.9872641034352551 0.5169355983447024 0 0 
86 0.9873716444476048 0.5063139544754786 0 0 
87 0.9874536719668728 0.4952743924659158 0 0 
88 0.9875095637075084 0.4839256001866096 0 0 
89 0.9875389325074664 0.4723790243517256 0 0 
90 0.9875416247847766 0.4607477132322627 0 0 
91 0.9875177175860332 0.4491451544133682 0 0 
92 0.9874675143830789 0.4376841218631486 0 0 
93 0.9873915397530892 0.4264755460327798 0 0 
94 0.9872905330539108 0.4156274198987636 0 0 
95 0.9871654411818631 0.4052437528181903 0 0 
96 0.9870174104741618 0.3954235828356911 0 0 
97 0.9868477777934642 0.3862600567017863 0 0 
98 0.9866580608085445 0.3778395853861969 0 0 
99 0.9864499474634595 0.3702410813478403 0 0 
100 0.9862252846084394 0.3635352823064589 0 0 
101 0.9859860657497493 0.3577841647975758 0 0 
102 0.9857344178635468 0.3530404494247422 0 0 
103 0.9854725872108678 0.3493471984896341 0 0 
104 0.985202924087912 0.3467375056077043 0 0 
105 0.9849278664482723 0.3452342760272987 0 0 
106 0.9846499223421913 0.3448500956728104 0 0 
107 0.9843716511327233 0.345587186429727 0 0 
108 0.9840956434701866 0.3474374448733263 0 0 
109 0.983824500034658 0.3503825614968044 0 0 
110 0.9835608090914965 0.354394217494252 0 0 
111 0.9833071229466852 0.3594343562677391 0 0 
112 0.9830659334365792 0.3654555270188634 0 0 
113 0.9828396466394402 0.372401298012623 0 0 
114 0.9826305570525447 0.3802067373224464 0 0 
115 0.9824408215367607 0.3887989590367822 0 0 
116 0.9822724333879622 0.3980977329892317 0 0 
117 0.9821271969486625 0.4080161560299152 0 0 
118 0.9820067032206294 0.4184613826567308 0 0 
119 0.9819123069765691 0.4293354124519601 0 0 
120 0.981845105892775 0.4405359312138631 0 0 
121 0.01750519445837419 0.2462961103238689 0 0 
122 0.01748677130357778 0.2438187700465282 0 0 
123 0.01741754157001694 0.2415984522269991 0 0 
124 0.01729832426302708 0.239657049037175 0 0 
125 0.0171305739095192 0.2380126268140294 0 0 
126 0.01691635108844689 0.2366792951057451 0 0 
127 0.01665828024490437 0.2356671680134756 0 0 
128 0.0163594966384256 0.2349824109664287 0 0 
129 0.01602358468036227 0.2346273626059319 0 0 
130 0.01565451014582522 0.2346007190211873 0 0 
131 0.01525654879918503 0.2348977662659745 0 0 
132 0.01483421386369786 0.2355106468550074 0 0 
133 0.01439218452482174 0.2364286466527511 0 0 
134 0.01393523732108099 0.2376384900174282 0 0 
135 0.013468181886368 0.2391246330072153 0 0 
136 0.01299580210125658 0.2408695466550176 0 0 
137 0.01252280331998367 0.2428539845605371 0 0 
138 0.01205376598780417 0.2450572311654827 0 0 
139 0.01159310566536692 0.2474573289529023 0 0 
140 0.01114503923959243 0.250031284375914 0 0 
141 0.01071355692474745 0.2527552535499093 0 0 
142 0.01030239953875978 0.2556047096418925 0 0 
143 0.009915040471045956 0.2585545944916943 0 0 
144 0.009554671730504631 0.2615794573446298 0 0 
145 0.009224193466825402 0.2646535837119521 0 0 
146 0.008926206386410847 0.2677511173518161 0 0 
147 0.008663006528492705 0.2708461782223721 0 0 
148 0.008436581921394209 0.273912979036382 0 0 
149 0.00824861069838588 0.2769259427729602 0 0 
150 0.008100460313754191 0.2798598231977817 0 0 
151 0.007993187560034599 0.2826898301236785 0 0 
152 0.007927539145362652 0.285391760817669 0 0 
153 0.007903952644794624 0.2879421386324704 0 0 
154 0.007922557691055781 0.2903183596105909 0 0 
155 0.007983177318725842 0.2924988474745196 0 0 
156 0.008085329421905674 0.2944632170729622 0 0 
157 0.008228228329654383 0.2961924459943814 0 0 
158 0.008410786546771288 0.2976690536788347 0 0 
159 0.008631616750669027 0.2988772869512475 0 0 
160 0.008889034178930189 0.2998033104576842 0 0 
161 0.009181059587302948 0.3004354000074906 0 0 
162 0.009505423004779088 0.3007641363059185 0 0 
163 0.009859568561070925 0.3007825960061303 0 0 
164 0.0102406607118495 0.3004865364215871 0 0 
165 0.01064559223748998 0.2998745696311941 0 0 
166 0.01107099443997075 0.2989483210982786 0 0 
167 0.01151325000722025 0.2977125673362254 0 0 
168 0.01196850905072897 0.2961753466236832 0 0 
169 0.01243270884557277 0.2943480363455989 0 0 
170 0.01290159780585566 0.2922453902672859 0 0 
171 0.01337076420563806 0.2898855290011949 0 0 
172 0.01383567009763932 0.2872898771688449 0 0 
173 0.01429169078128799 0.2844830413644106 0 0 
174 0.01473416002083409 0.2814926240566563 0 0 
175 0.01515842100820279 0.2783489700717134 0 0 
176 0.01555988280275427 0.2750848443038767 0 0 
177 0.0159340816652178 0.2717350417888736 0 0 
178 0.01627674634680874 0.2683359341771188 0 0 
179 0.01658386601590307 0.2649249598364546 0 0 
180 0.01685175913069528 0.2615400681069119 0 0 
181 0.01707714123096719 0.2582191313793257 0 0 
182 0.01725718936357241 0.2549993413931343 0 0 
183 0.01738960071246317 0.2519166081538851 0 0 
184 0.01747264300754389 0.2490049808919018 0 0 
185 0.01709314488852476 0.4015989799730308 0 0 
186 0.01707517281210629 0.399111759503933 0 0 
187 0.01700812664977809 0.396839561247062 0 0 
188 0.01689278631244799 0.3948049165425394 0 0 
189 0.01673053481529862 0.3930271174892956 0 0 
190 0.01652333149017166 0.3915220564684085 0 0 
191 0.01627367356226523 0.3903021435522225 0 0 
192 0.01598454768604903 0.3893762972861102 0 0 
193 0.0156593733969294 0.3887500014129195 0 0 
194 0.01530194065291928 0.3884254179632138 0 0 
195 0.01491634370945384 0.3884015458443528 0 0 
196 0.01450691350074423 0.388674413621503 0 0 
197 0.01407815051483733 0.3892372955053932 0 0 
198 0.01363465987670526 0.3900809404998682 0 0 
199 0.01318109002714077 0.3911938060399617 0 0 
200 0.01272207603679745 0.3925622890863744 0 0 
201 0.01226218825195849 0.3941709493675287 0 0 
202 0.01180588665295635 0.3960027211378208 0 0 
203 0.01135748103214271 0.398039111348416 0 0 
204 0.0109210968738803 0.4002603834396175 0 0 
205 0.01050064664650853 0.4026457270299262 0 0 
206 0.01009980609359295 0.4051734145912868 0 0 
207 0.009721995034009511 0.4078209467779052 0 0 
208 0.009370362140849438 0.4105651884445431 0 0 
209 0.009047773160420948 0.4133824975831152 0 0 
210 0.008756802047560372 0.4162488494590779 0 0 
211 0.008499724525486047 0.4191399581744167 0 0 
212 0.008278513621915241 0.4220313977514103 0 0 
213 0.008094836783548954 0.4248987246444634 0 0 
214 0.00795005422481878 0.4277176033645876 0 0 
215 0.007845218221428396 0.4304639366556599 0 0 
216 0.007781073113028752 0.4331140014018066 0 0 
217 0.007758055831332909 0.435644591175025 0 0 
218 0.007776296819662745 0.4380331660531664 0 0 
219 0.007835621257301688 0.4402580100484741 0 0 
220 0.00793555054738513 0.442298396183121 0 0 
221 0.00807530407087337 0.4441347589261124 0 0 
222 0.008253801252007803 0.4457488733604851 0 0 
223 0.008469664023162028 0.4471240400765757 0 0 
224 0.008721219819721128 0.4482452743817039 0 0 
225 0.009006505278968619 0.4490994979770409 0 0 
226 0.009323270861116492 0.449675730777897 0 0 
227 0.009668986655428766 0.4499652800473307 0 0 
228 0.010040849679268 0.4499619234811276 0 0 
229 0.0104357930216668 0.4496620823367918 0 0 
230 0.01085049722382132 0.4490649801577464 0 0 
231 0.01128140432402284 0.4481727821305035 0 0 
232 0.01172473502036554 0.4469907096599563 0 0 
233 0.01217650941650924 0.4455271243951223 0 0 
234 0.01263257180833802 0.443793575732893 0 0 
235 0.01308861993631808 0.4418048058237521 0 0 
236 0.01354023906314928 0.4395787063581979 0 0 
237 0.01398294113260401 0.4371362219824079 0 0 
238 0.01441220911802672 0.434501196125653 0 0 
239 0.01482354647478652 0.4317001563558596 0 0 
240 0.01521253137041492 0.4287620381246339 0 0 
241 0.01557487508431679 0.4257178478984577 0 0 
242 0.01590648365670063 0.422600269135774 0 0 
243 0.01620352154104066 0.4194432172517908 0 0 
244 0.01646247569952367 0.4162813524573984 0 0 
245 0.01668021830517333 0.4131495619684529 0 0 
246 0.01685406600896758 0.4100824253332789 0 0 
247 0.01698183362570685 0.4071136782908102 0 0 
248 0.01706188011393193 0.4042756914450447 0 0 
249 0 332.5 53.5 0 
250 68.5 -10 -7 0 
251 64.5 -10 7 0 
252 0 262 53.5 0 
253 67.20238536807101 1.699999999999994 -8.881784197001252e-16 0 
254 6.700000000000001 310 53.50874046907263 0 
255 6.699999999999999 300 53.4937966922692 0 
1 -1e-07 261.9999999 53.4999999 1e-07 332.5000001 53.5000001 0 2 49 -50 
2 -1.000000011686097e-07 -10.00000009999999 -7.000000100000001 71.66000009999999 332.5000001 57.2500001 0 2 49 -51 
3 64.49999990000001 -10.0000001 -7.0000001 68.50000009999999 -9.999999900000001 7.0000001 0 2 51 -52 
4 -1.000000011686097e-07 -10.00000010000001 6.999999899999999 69.02000009999999 262.0000001 53.7300001 0 2 50 -52 
5 -9.999999994736442e-08 -1e-07 -1e-07 1.0000001 1e-07 1e-07 0 2 53 -54 
6 0.9999999000000001 -9.999999994736442e-08 -1e-07 1.0000001 1.0000001 1e-07 0 2 54 -55 
7 -9.999999994736442e-08 0.9999999000000001 -1e-07 1.0000001 1.0000001 1e-07 0 2 55 -56 
8 -1e-07 -9.999999994736442e-08 -1e-07 1e-07 1.0000001 1e-07 0 2 56 -53 
9 0.9817903826914554 0.3448033526423575 -1e-07 0.9875461487088235 0.5810749556402171 1e-07 0 2 57 -57 
10 0.007896991550199755 0.2345717260178885 -1e-07 0.01750632898816032 0.3008134639321559 1e-07 0 2 121 -121 
11 0.007751213278498104 0.3883735263025931 -1e-07 0.01709457747831688 0.4500024058140975 1e-07 0 2 185 -185 
12 -1.000000000317414e-05 -10.00001 -7.000010000000003 71.66001 332.50001 57.25001 0 2 249 -250 
13 64.49999 -10.00001 -7.00001 68.50001 -9.99999 7.00001 0 2 250 -251 
14 -1.000000000317414e-05 -10.00000999999999 6.99999 69.02001 262.00001 53.73001 0 2 251 -252 
15 -1e-05 261.99999 53.49999 1e-05 332.50001 53.50001 0 2 252 -249 
16 66.61493469330354 -1.700010098778871 -1.702055782449714 67.53380032272248 1.700050583118531 1.701381533304224 0 2 253 -253 
17 3.299989054786221 308.2969388371628 53.49837981531007 6.700308500145528 311.7024667539794 53.50911868450729 0 2 254 -254 
18 3.299989200253751 298.2999854467561 53.49145408623794 6.700458390656947 301.7000125899789 53.4948010863346 0 2 255 -255 
2 -1.000000011686097e-07 -10.00000009999999 -7.000000100000001 71.66000009999999 332.5000001 57.2500001 1 1 7 12 13 14 15 16 17 18 
$EndEntities
$Nodes
15 171 1 171
0 249 0 1
1
0 332.5 53.5
0 250 0 1
2
68.5 -10 -7
0 251 0 1
3
64.5 -10 7
0 252 0 1
4
0 262 53.5
0 253 0 1
5
67.20238536807102 1.699999999999992 0
0 254 0 1
6
6.700000000000002 310 53.50874046907261
0 255 0 1
7
6.700000000000002 300.0000000000001 53.49379669226919
1 12 0 36
8
9
10
11
12
13
14
15
16
17
18
19
20
21
22
23
24
25
26
27
28
29
30
31
32
33
34
35
36
37
38
39
40
41
42
43
6.941949562512525 325.4757101126301 53.53809105846383
12.43825652032765 317.2799668961247 53.68002495670125
16.05385753101637 308.1022328056537 53.97772954555342
18.1339789723024 298.4548838384371 54.50772377344899
20.88787419599116 289.0187283195874 55.36870968626559
25.5316368016679 280.3169315467832 55.51886055906875
29.89257465495206 271.6845687955727 53.55793997316948
32.96402106458684 262.6506428668332 50.99205931084228
35.0541032752043 253.2578302054609 48.73676386527832
36.46923368397299 243.6423391659063 46.93172928068317
37.50175730622141 233.9204492152198 45.46030802926377
38.33841789964127 224.1476646859924 44.21685371111037
39.07902980999184 214.3457028444295 43.15439207382882
39.79277764852098 204.5256005600598 42.25298234344092
40.54123378936323 194.694850768639 41.50996246950147
41.37345028071132 184.8603983429866 40.92078953319779
42.30117261996474 175.0283352302424 40.44448732105898
43.33024064043097 165.2038024431075 40.02370267573665
44.46578435263935 155.3916509810178 39.58848089754191
45.71165749465425 145.5977603824878 39.0563325780924
47.07755232606112 135.8317167200246 38.34107825950234
48.61321471950234 126.1114843389581 37.38820087245496
50.38395742477187 116.4633387839572 36.15452337163676
52.45503195805683 106.9223343569125 34.59948232791633
54.88635515576691 97.53236653690652 32.6891760669911
57.66995499040016 88.32383223929692 30.41050598906754
60.66309892602087 79.27979661172415 27.76663467104961
63.69989980499192 70.37544318383605 24.7281915709402
66.55759419453186 61.59130635393019 21.20756389249096
68.86498413375872 52.94114463851415 17.02301050250739
70.27732966290827 44.51364915246644 12.06289654922256
70.68528333705569 36.35571430536488 6.499903114468121
70.35361347716542 28.20673353460062 0.9180140811048636
69.76888017572092 19.2617070637542 -3.208660582632602
69.23723218069419 9.68590017639182 -5.569396374524939
68.81873795705019 -0.1245868542546522 -6.689190818776702
1 13 0 1
44
66.5 -10 2.886579864025407e-15
1 14 0 30
45
46
47
48
49
50
51
52
53
54
55
56
57
58
59
60
61
62
63
64
65
66
67
68
69
70
71
72
73
74
65.04539134709123 -0.2777007905882556 7.741615152809912
65.78567350893303 9.34394991669823 9.221512570562281
66.82325181570229 18.61094441916856 12.06896329128014
68.08822300388461 26.75037056372373 17.25105948277859
68.5552058168044 34.2138725480123 23.52263924223072
67.70093861365991 41.90956121247905 29.460840924409
65.89340115399771 50.08022131042782 34.48304338004966
63.38508701056562 58.59729574574889 38.53980708634494
60.37039137572985 67.31441451361768 41.74335920719265
57.1162595047328 76.15033928769263 44.33431077387184
53.80676015952115 85.07699362903845 46.51397535380192
50.5444750588299 94.08690035295569 48.40367464147178
47.401068636398 103.1901830434498 50.0282443912554
44.44187519093142 112.4006589199798 51.36860394821683
41.74099935469605 121.7310293871211 52.38296229277132
39.36976459800082 131.1826543783404 53.03211383531149
37.328138610105 140.7277658918169 53.35801260463098
35.56540251722833 150.3337831535279 53.44595384608746
34.01294556247991 159.9764530931177 53.38331492874379
32.60683333826609 169.6407730805559 53.23794644808212
31.30178217511139 179.3185726548069 53.05035336015341
30.07327143657687 189.0060564623793 52.84573704756283
28.90805006768666 198.7014461653021 52.64522174463799
27.79987391305846 208.4040613513082 52.47305937555446
26.73788399667967 218.1127258355664 52.36206770725492
25.63939220294624 227.8178665695727 52.33889394892237
24.31586505130026 237.4938565840784 52.43439511768204
22.38398883337274 247.0605291591032 52.69413246978396
18.03282230743987 255.6748612364021 53.10581554550173
9.616515947199229 260.3946262707152 53.39888914369817
1 15 0 7
75
76
77
78
79
80
81
0 270.8125 53.5
0 279.625 53.5
0 288.4374999999999 53.5
0 297.2499999999999 53.5
0 306.0624999999999 53.5
0 314.875 53.5
0 323.6875 53.5
1 16 0 3
82
83
84
66.6346800294683 0.01616752972641392 1.700373982757724
66.95773968235352 -1.699999572390017 0.001208580055150004
67.5179333431953 -0.01758815903776552 -1.700509923194096
1 17 0 3
85
86
87
5.000006619074377 311.7000021151518 53.50299690151643
3.299999999747141 309.9999871414959 53.49858344755223
5.000003483592533 308.2999986524491 53.50004284348326
1 18 0 3
88
89
90
5.000002674510649 301.7000000002182 53.4945019094977
3.299999999842289 299.9999895520933 53.49451154588837
4.999997489951506 298.2999999994705 53.49174274864996
2 2 0 81
91
92
93
94
95
96
97
98
99
100
101
102
103
104
105
106
107
108
109
110
111
112
113
114
115
116
117
118
119
120
121
122
123
124
125
126
127
128
129
130
131
132
133
134
135
136
137
138
139
140
141
142
143
144
145
146
147
148
149
150
151
152
153
154
155
156
157
158
159
160
161
162
163
164
165
166
167
168
169
170
171
17.91328674056213 265.3271887647758 53.22652758281892
11.46574835623574 291.2559073949784 53.48108729857572
7.450124253114302 307.6107595841074 53.50924468262933
7.631706101744079 275.2187500000007 53.45331848179572
7.322241751790868 302.3222361309573 53.49889170441158
9.64772049819063 300.1742468331473 53.5054675557525
9.550860169143325 303.7062801454715 53.51631274951421
12.49455613487189 301.0186236493215 53.55086529158541
8.49893043819514 297.9049430373694 53.493462365224
14.92839836770419 283.4675855483524 53.44871118035616
67.51936660952039 -2.391834455362758 -2.272620219685299
66.31456149670174 -2.825190766951762 2.132090641195795
8.990775118290651 310.2543837002286 53.53063969761348
7.290371376938016 312.2850748732132 53.5169803066705
6.741032242631686 295.6353589817488 53.48761937054414
5.59266100253788 304.132660536056 53.49725701088367
38.49664029585843 180.1636311337749 48.28566190357189
39.89345310488105 170.6410312187623 47.26981295258443
37.42135072347533 188.8833918631462 48.95342636680462
36.39011580172088 198.6664368129638 49.50418481080871
35.29607393365082 208.4526956112484 50.13419806328372
34.11798589725824 218.1258548938312 50.82599046275604
18.11154012358416 275.6666525394752 53.39711958867633
5.821234371589388 267.5445716728028 53.46172029446492
2.67775803929367 302.3222313506123 53.49601398026444
55.8389433284032 88.70309598463157 39.90654292886713
58.34932214440072 80.39706506924298 36.86947170142794
54.5935224047719 95.26520191141049 38.80620846332516
7.325635385105379 283.5009725089772 53.46817316380161
25.22507729361939 263.0974584908066 54.66617271083551
6.325948975753413 319.1201908981199 53.51974420655137
50.01235406569 111.4460245785978 43.72807354353353
41.52382661953165 158.9998220140344 46.39727198417621
42.82961986649124 149.5411907701971 46.05352485205773
44.22282866889799 138.5474057346386 46.20723830114869
46.14753992367247 129.511895983045 45.25336077814249
48.2846316446481 119.8514770830556 44.22060291453025
66.19816952249046 5.252999519986284 5.324279492772225
5.468344582702435 314.5965857867599 53.50781169680334
8.903785134461627 315.5042874027569 53.54568078872286
61.08432133644979 71.62016468078025 33.67427249370957
63.77482640982795 62.78734382179826 30.7818213523897
66.63531719080524 53.53488831168792 26.23527836007704
66.8196888273844 -4.950812218207155 -0.2309602967089976
65.87994705546146 -4.653110012278768 3.284860335811239
27.14899989077063 255.3677118859731 54.27919785003812
29.54827140282712 246.4931833247646 53.38749216819595
31.49420412143287 239.4009250964775 52.34665385129957
33.26269248811904 230.4228735843341 51.20194649986099
68.7063090712054 44.65734577366037 21.21192803062866
69.43139509030962 33.78772322508769 14.49193643474145
3.026043241225556 295.4667376475464 53.49332051584584
10.24161604285768 306.4336661501193 53.53539190129674
67.87661156352689 -5.077004022544065 -4.116584593060979
10.01716912354365 294.4992441099701 53.48851296459343
6.779358179507921 291.1627141030568 53.48136137265623
13.97225431832902 294.57880363002 53.53686788208298
16.11094779681489 290.0072837324161 53.56347113773948
11.39185343885083 297.8652220220354 53.51247511495598
67.7311683049156 15.73023750312283 4.420927493179275
68.10808092905852 11.97873395500453 0.3388528577852864
68.77712516873868 25.97437083823818 9.164078289735523
6.092076511415763 306.1543724634212 53.50069238791269
7.971140684302039 305.2894901530456 53.50782471922136
3.507482375171246 305.3168479858695 53.49662603133183
13.26795347609415 271.409549511126 53.37140186848219
22.51158297446997 269.765418947631 54.42708981160855
2.250868075176945 312.5956892062561 53.49884327795733
12.28541003139524 278.4317912813981 53.41880738709033
67.23742987361013 5.938216668609735 1.325264693329324
38.60628069752526 155.7527706063684 50.81356540245746
36.13717094016043 175.008745882181 51.33924401623216
10.98114401474785 287.1353139328284 53.46269778831385
65.93089411779884 -0.9795936205759155 4.101747110625335
67.08963005207958 10.42893886704367 4.044476255274942
59.44024157467821 73.92141682257127 39.31147868161383
3.506518613795856 316.8379210730375 53.50199794737527
62.13534917741461 65.42446747917717 36.15846522720837
51.507779547603 102.9822072648896 43.98197627489299
66.30638857782505 1.876381302716505 3.573511675175657
2.368165272632725 307.6995603373418 53.49766738378695
$EndNodes
$Elements
1 256 1 256
2 2 2 256
1 91 136 73 
2 137 138 72 
3 72 138 71 
4 43 144 101 
5 90 142 89 
6 64 108 63 
7 9 121 8 
8 150 152 40 
9 68 111 110 
10 68 110 67 
11 108 123 63 
12 69 112 111 
13 132 133 51 
14 69 111 68 
15 41 150 40 
16 52 132 51 
17 70 139 112 
18 70 112 69 
19 62 124 61 
20 10 103 9 
21 81 1 8 
22 114 156 74 
23 7 99 90 
24 138 139 71 
25 124 125 61 
26 39 152 141 
27 33 117 116 
28 98 143 10 
29 11 148 147 
30 126 127 59 
31 133 140 50 
32 88 115 106 
33 125 126 60 
34 51 133 50 
35 71 139 70 
36 60 126 59 
37 77 146 119 
38 121 167 81 
39 74 156 91 
40 65 109 107 
41 66 109 65 
42 113 159 100 
43 82 170 5 
44 8 121 81 
45 66 110 109 
46 67 110 66 
47 142 146 77 
48 11 98 10 
49 112 139 19 
50 141 152 48 
51 61 125 60 
52 59 127 58 
53 89 142 78 
54 119 163 100 
55 5 170 160 
56 58 127 122 
57 76 94 75 
58 76 119 94 
59 153 155 87 
60 10 143 103 
61 100 159 119 
62 146 163 119 
63 77 119 76 
64 96 149 99 
65 94 114 75 
66 40 152 39 
67 36 133 132 
68 42 160 151 
69 74 91 73 
70 50 140 49 
71 15 120 14 
72 47 152 150 
73 35 132 131 
74 16 136 15 
75 17 137 16 
76 39 141 38 
77 28 125 27 
78 36 132 35 
79 38 141 140 
80 34 117 33 
81 26 123 25 
82 34 131 117 
83 107 109 23 
84 24 107 23 
85 18 138 17 
86 20 112 19 
87 79 155 115 
88 58 122 57 
89 41 151 150 
90 42 151 41 
91 158 167 129 
92 140 141 49 
93 75 114 4 
94 37 140 133 
95 17 138 137 
96 12 148 11 
97 15 136 120 
98 115 155 106 
99 94 156 114 
100 16 137 136 
101 88 106 95 
102 106 154 95 
103 56 169 118 
104 92 163 146 
105 37 133 36 
106 35 131 34 
107 56 116 55 
108 148 163 92 
109 88 95 7 
110 6 93 87 
111 27 125 124 
112 38 140 37 
113 85 158 129 
114 4 114 74 
115 119 159 94 
116 56 118 116 
117 19 139 18 
118 87 171 86 
119 11 147 98 
120 25 123 108 
121 134 144 44 
122 3 135 44 
123 44 144 2 
124 14 157 13 
125 57 169 56 
126 155 171 87 
127 99 149 145 
128 45 170 164 
129 128 170 45 
130 13 157 113 
131 64 162 108 
132 62 161 124 
133 99 105 90 
134 100 148 12 
135 108 162 107 
136 105 146 142 
137 100 163 148 
138 132 168 131 
139 101 144 134 
140 124 161 123 
141 98 149 96 
142 120 157 14 
143 49 141 48 
144 131 166 117 
145 94 159 156 
146 47 150 46 
147 48 152 47 
148 18 139 138 
149 96 99 7 
150 95 154 97 
151 89 115 88 
152 153 154 106 
153 93 153 87 
154 83 134 102 
155 95 96 7 
156 99 145 105 
157 6 104 103 
158 54 166 53 
159 122 169 57 
160 65 162 64 
161 63 161 62 
162 53 168 52 
163 84 101 83 
164 80 167 158 
165 44 135 134 
166 83 102 82 
167 86 158 85 
168 95 97 96 
169 85 129 104 
170 147 148 92 
171 53 166 131 
172 93 154 153 
173 121 130 129 
174 145 147 92 
175 92 146 145 
176 85 104 6 
177 134 135 102 
178 131 168 53 
179 164 170 82 
180 97 98 96 
181 145 146 105 
182 156 157 91 
183 143 154 93 
184 106 155 153 
185 145 149 147 
186 103 143 93 
187 156 159 113 
188 6 103 93 
189 105 142 90 
190 9 130 121 
191 52 168 132 
192 129 167 121 
193 113 157 156 
194 101 134 83 
195 102 164 82 
196 91 157 120 
197 117 166 54 
198 123 161 63 
199 151 165 150 
200 150 165 46 
201 129 130 104 
202 79 171 155 
203 160 170 128 
204 97 154 143 
205 107 162 65 
206 128 165 160 
207 46 165 128 
208 160 165 151 
209 2 144 43 
210 21 112 20 
211 22 111 21 
212 23 110 22 
213 25 107 24 
214 25 108 107 
215 27 123 26 
216 27 124 123 
217 29 125 28 
218 30 126 29 
219 31 127 30 
220 46 128 45 
221 78 142 77 
222 80 158 79 
223 158 171 79 
224 81 167 80 
225 45 135 3 
226 43 5 42 
227 5 160 42 
228 43 84 5 
229 103 130 9 
230 13 113 12 
231 12 113 100 
232 111 112 21 
233 110 111 22 
234 109 110 23 
235 29 126 125 
236 30 127 126 
237 32 122 31 
238 122 127 31 
239 33 118 32 
240 118 169 32 
241 32 169 122 
242 116 118 33 
243 43 101 84 
244 45 164 135 
245 55 116 54 
246 116 117 54 
247 73 137 72 
248 136 137 73 
249 79 115 78 
250 78 115 89 
251 86 171 158 
252 120 136 91 
253 97 143 98 
254 147 149 98 
255 135 164 102 
256 104 130 103 
$EndElements
